#!OML:ASF F:\VICON\USERDATA\INSTALL\rory3\rory3.ASF
:FULLY-SPECIFIED
:DEGREES
183
root 2.58424 18.2651 -2.06419 -169.367 -40.0794 178.361
lowerback -8.29773 -1.426 -0.315643
upperback -2.55597 -1.99097 -0.0496224
thorax 2.01407 -1.04486 -0.0722264
lowerneck -18.3107 -0.959685 1.08907
upperneck 23.1795 -1.98328 -0.435335
head 10.4429 -1.02815 -0.649657
rclavicle -6.27414e-016 -1.04362e-014
rhumerus -37.228 6.85157 -88.7887
rradius 28.8846
rwrist 4.0535
rhand -21.542 10.2089
rfingers 7.12502
rthumb 4.85098 -19.7155
lclavicle -6.27414e-016 -1.04362e-014
lhumerus -44.5812 -15.4837 89.742
lradius 31.8646
lwrist 8.46951
lhand -7.47168 25.4072
lfingers 7.12502
lthumb 18.4171 54.5554
rfemur -26.4556 -7.86714 22.4508
rtibia 26.3527
rfoot -9.65257 6.42275
rtoes 3.91508
lfemur -13.1534 10.2171 -16.8898
ltibia 56.3042
lfoot 8.05242 -14.4722
ltoes -13.8121
184
root 2.53748 18.2707 -2.1678 -169.31 -40.1529 178.132
lowerback -8.20374 -1.40516 -0.603992
upperback -2.50571 -1.93625 -0.0537483
thorax 2.02291 -1.01614 0.0923662
lowerneck -18.3536 -0.996855 1.00619
upperneck 23.1646 -2.02618 -0.364342
head 10.4471 -1.04501 -0.616626
rclavicle 1.64488e-013 1.75924e-014
rhumerus -37.1444 7.46433 -88.9826
rradius 29.2027
rwrist 3.5974
rhand -21.5992 10.1132
rfingers 7.12502
rthumb 4.79582 -19.8125
lclavicle 1.64488e-013 1.75924e-014
lhumerus -44.4283 -15.3469 89.682
lradius 32.0705
lwrist 8.50452
lhand -7.49525 25.1954
lfingers 7.12502
lthumb 18.3945 54.3457
rfemur -25.9733 -7.97335 22.3156
rtibia 26.4101
rfoot -10.0702 6.56822
rtoes 3.87036
lfemur -14.2871 10.5568 -16.988
ltibia 58.0273
lfoot 7.13797 -14.1254
ltoes -15.1508
185
root 2.48338 18.2765 -2.27469 -169.406 -40.1939 178.009
lowerback -8.21378 -1.38699 -0.886647
upperback -2.36487 -1.88289 0.0388252
thorax 2.18539 -0.987028 0.348735
lowerneck -18.4444 -1.0281 0.94698
upperneck 23.1824 -2.01573 -0.491924
head 10.4697 -1.05923 -0.65147
rclavicle -2.29115e-014 1.59028e-015
rhumerus -36.7989 7.99011 -88.9598
rradius 29.268
rwrist 3.30627
rhand -21.4537 10.0607
rfingers 7.12502
rthumb 4.93624 -19.8618
lclavicle -2.29115e-014 1.59028e-015
lhumerus -44.2253 -14.9959 89.6471
lradius 32.3731
lwrist 8.51007
lhand -7.63188 25.296
lfingers 7.12502
lthumb 18.263 54.4586
rfemur -25.3246 -8.1938 22.2537
rtibia 26.3665
rfoot -10.3944 6.84644
rtoes 3.87473
lfemur -15.2469 10.9139 -17.0162
ltibia 59.6005
lfoot 6.04009 -13.7436
ltoes -16.4013
186
root 2.42661 18.2791 -2.38248 -169.61 -40.2158 178.104
lowerback -8.2735 -1.3574 -0.936089
upperback -2.2584 -1.83602 0.149786
thorax 2.33294 -0.962196 0.492172
lowerneck -18.4981 -1.03678 0.918808
upperneck 23.2687 -1.9915 -0.613324
head 10.5103 -1.06601 -0.688226
rclavicle 6.42292e-014 -1.78906e-015
rhumerus -36.3394 8.39795 -88.9075
rradius 29.1078
rwrist 3.17118
rhand -21.2771 10.2844
rfingers 7.12502
rthumb 5.10675 -19.6341
lclavicle 6.42292e-014 -1.78906e-015
lhumerus -44.1139 -14.5683 89.5594
lradius 32.7319
lwrist 8.42477
lhand -7.80769 25.4313
lfingers 7.12502
lthumb 18.0939 54.6097
rfemur -24.7097 -8.42352 22.4122
rtibia 26.2403
rfoot -10.6711 7.05379
rtoes 3.16241
lfemur -16.2258 11.2582 -16.9014
ltibia 61.0489
lfoot 5.10459 -13.3341
ltoes -16.9896
187
root 2.37218 18.2811 -2.48653 -169.738 -40.3213 178.183
lowerback -8.28451 -1.31007 -0.895564
upperback -2.23193 -1.7748 0.147505
thorax 2.36412 -0.931152 0.47267
lowerneck -18.4525 -1.06002 1.01056
upperneck 23.3281 -2.0519 -0.636238
head 10.5215 -1.09017 -0.720918
rclavicle -3.34145e-014 5.76476e-015
rhumerus -35.9961 8.55184 -88.9775
rradius 28.9842
rwrist 3.15074
rhand -21.2021 10.6242
rfingers 7.12502
rthumb 5.17918 -19.2925
lclavicle -3.34145e-014 5.76476e-015
lhumerus -43.9585 -14.1346 89.2644
lradius 32.9398
lwrist 8.13802
lhand -7.43147 25.3995
lfingers 7.12502
lthumb 18.4558 54.544
rfemur -24.2509 -8.80544 22.6262
rtibia 26.1279
rfoot -10.9757 7.26001
rtoes 1.57159
lfemur -17.3324 11.4901 -16.8543
ltibia 62.3632
lfoot 4.17516 -12.8872
ltoes -17.7346
188
root 2.32518 18.2855 -2.58805 -169.836 -40.464 178.254
lowerback -8.24411 -1.25038 -0.908994
upperback -2.21938 -1.69332 0.143314
thorax 2.35367 -0.890104 0.485057
lowerneck -18.4206 -1.13345 0.959143
upperneck 23.3877 -2.17897 -0.510091
head 10.5383 -1.13895 -0.686094
rclavicle -1.49794e-013 6.4605e-015
rhumerus -35.7155 8.69701 -89.0693
rradius 28.9791
rwrist 2.92597
rhand -21.4819 10.9158
rfingers 7.12502
rthumb 4.90905 -19.0073
lclavicle -1.49794e-013 6.4605e-015
lhumerus -43.8387 -14.0238 89.1425
lradius 33.2157
lwrist 8.50124
lhand -7.79694 25.4034
lfingers 7.12502
lthumb 18.1042 54.5808
rfemur -23.714 -8.87673 22.745
rtibia 25.9985
rfoot -11.247 7.31806
rtoes 1.88228
lfemur -18.5008 11.6429 -16.8184
ltibia 63.556
lfoot 3.42527 -12.4416
ltoes -17.8422
189
root 2.27394 18.2946 -2.68802 -169.934 -40.5078 178.259
lowerback -8.20288 -1.17265 -0.891784
upperback -2.19437 -1.58889 0.10384
thorax 2.35341 -0.837382 0.445983
lowerneck -18.3997 -1.18241 0.905877
upperneck 23.5164 -2.26288 -0.435106
head 10.5825 -1.17562 -0.664233
rclavicle 9.09735e-014 9.93923e-016
rhumerus -35.3658 8.77501 -89.1234
rradius 28.8957
rwrist 2.75748
rhand -21.6327 11.1065
rfingers 7.12502
rthumb 4.76346 -18.8199
lclavicle 9.09735e-014 9.93923e-016
lhumerus -43.733 -13.8865 89.0373
lradius 33.46
lwrist 9.13956
lhand -9.00388 25.5087
lfingers 7.12502
lthumb 16.9427 54.7897
rfemur -23.0434 -8.77804 22.6814
rtibia 25.9534
rfoot -11.6601 7.46365
rtoes 3.52364
lfemur -19.5445 11.8658 -16.8846
ltibia 64.5816
lfoot 2.52836 -11.9066
ltoes -18.5238
190
root 2.21889 18.2942 -2.78484 -170.417 -40.6351 178.749
lowerback -8.10918 -1.13254 -0.431292
upperback -2.13462 -1.57168 0.17253
thorax 2.35299 -0.825553 0.261483
lowerneck -18.1903 -1.14022 0.808061
upperneck 23.3684 -2.23265 -0.192912
head 10.4934 -1.14178 -0.553235
rclavicle -1.55549e-014 2.28602e-015
rhumerus -34.9671 8.94624 -89.1854
rradius 28.822
rwrist 2.76676
rhand -21.5478 11.2925
rfingers 7.12502
rthumb 4.84543 -18.6321
lclavicle -1.55549e-014 2.28602e-015
lhumerus -43.5483 -13.4787 88.7966
lradius 33.6856
lwrist 9.4844
lhand -9.66474 25.8293
lfingers 7.12502
lthumb 16.3065 55.1637
rfemur -22.3782 -8.69537 23.0337
rtibia 26.0241
rfoot -12.1752 7.54102
rtoes 4.37546
lfemur -20.4922 12.1849 -16.5777
ltibia 65.4757
lfoot 1.22496 -11.4571
ltoes -21.1535
191
root 2.16767 18.2855 -2.87784 -170.771 -40.7445 179.096
lowerback -7.99139 -1.09226 -0.156153
upperback -2.10183 -1.53959 0.230515
thorax 2.31584 -0.807436 0.172274
lowerneck -17.6813 -0.994625 0.642572
upperneck 22.8212 -2.0838 0.322104
head 10.2078 -1.02504 -0.311451
rclavicle 2.98224e-014 -6.16232e-015
rhumerus -34.5981 9.01032 -89.2167
rradius 28.7651
rwrist 2.72069
rhand -21.7719 11.2698
rfingers 7.12502
rthumb 4.62907 -18.6596
lclavicle 2.98224e-014 -6.16232e-015
lhumerus -43.3788 -13.0934 88.5942
lradius 33.9028
lwrist 9.70986
lhand -9.73369 26.0988
lfingers 7.12502
lthumb 16.2401 55.4387
rfemur -21.8714 -8.65214 23.3274
rtibia 26.1416
rfoot -12.6578 7.52736
rtoes 4.74454
lfemur -21.4955 12.5695 -16.4844
ltibia 66.2107
lfoot -0.0280707 -10.8298
ltoes -23.4615
192
root 2.12174 18.2809 -2.97024 -170.837 -40.6869 179.009
lowerback -7.82549 -1.02814 -0.252838
upperback -2.08579 -1.44305 0.181665
thorax 2.24093 -0.758634 0.189011
lowerneck -18.2761 -1.13172 0.836917
upperneck 23.6768 -2.26619 -0.142486
head 10.623 -1.15242 -0.549985
rclavicle -1.80894e-014 4.96962e-016
rhumerus -34.1395 8.86274 -89.2045
rradius 28.6042
rwrist 2.75914
rhand -21.783 11.3576
rfingers 7.12502
rthumb 4.61833 -18.5721
lclavicle -1.80894e-014 4.96962e-016
lhumerus -43.1747 -12.747 88.3389
lradius 34.0382
lwrist 9.94321
lhand -9.6203 26.0444
lfingers 7.12502
lthumb 16.3493 55.3753
rfemur -21.427 -8.50654 23.2647
rtibia 26.2842
rfoot -13.1219 7.44848
rtoes 5.15588
lfemur -22.476 12.87 -16.7469
ltibia 66.8155
lfoot -0.661891 -9.87473
ltoes -20.9152
193
root 2.07109 18.28 -3.06312 -170.92 -40.6692 178.991
lowerback -7.79964 -0.950004 -0.203711
upperback -2.03052 -1.33851 0.119039
thorax 2.2804 -0.705183 0.106876
lowerneck -18.4696 -1.19663 0.905413
upperneck 24.0083 -2.35525 -0.311478
head 10.7783 -1.21028 -0.641486
rclavicle -1.61233e-014 -1.13307e-014
rhumerus -33.6374 8.66681 -89.1726
rradius 28.512
rwrist 2.91226
rhand -21.7353 11.219
rfingers 7.12502
rthumb 4.66436 -18.7097
lclavicle -1.61233e-014 -1.13307e-014
lhumerus -42.9292 -12.4827 88.1208
lradius 34.1736
lwrist 10.092
lhand -9.72088 26.0795
lfingers 7.12502
lthumb 16.2524 55.4183
rfemur -21.0686 -8.60279 23.2829
rtibia 26.5366
rfoot -13.6002 7.56565
rtoes 4.679
lfemur -23.4607 12.9804 -16.9082
ltibia 67.3166
lfoot -1.17252 -9.00404
ltoes -16.7916
194
root 2.01815 18.2771 -3.15572 -170.72 -40.6139 178.684
lowerback -7.92497 -0.880674 -0.327946
upperback -1.98026 -1.23101 -0.0274537
thorax 2.40066 -0.651699 0.0332042
lowerneck -18.5136 -1.20168 0.910934
upperneck 24.1388 -2.37436 -0.308454
head 10.8349 -1.21952 -0.646518
rclavicle -1.90554e-015 -1.13307e-014
rhumerus -33.2265 8.44368 -89.163
rradius 28.5491
rwrist 2.94653
rhand -21.7685 11.2486
rfingers 7.12502
rthumb 4.63227 -18.6808
lclavicle -1.90554e-015 -1.13307e-014
lhumerus -42.7475 -12.5242 88.0808
lradius 34.4387
lwrist 10.7023
lhand -10.0331 26.2031
lfingers 7.12502
lthumb 15.9517 55.5662
rfemur -20.8759 -8.72106 23.0561
rtibia 26.9294
rfoot -14.1022 7.76283
rtoes 4.28392
lfemur -24.487 13.0639 -17.4142
ltibia 67.6192
lfoot -2.0907 -8.19644
ltoes -16.4296
195
root 1.96573 18.2621 -3.24515 -170.359 -40.517 178.271
lowerback -8.07479 -0.830517 -0.561254
upperback -1.99176 -1.14298 -0.174013
thorax 2.47295 -0.609992 0.0193261
lowerneck -18.538 -1.18425 0.941971
upperneck 24.2385 -2.35987 -0.33343
head 10.876 -1.21446 -0.660397
rclavicle 5.01745e-014 1.85864e-014
rhumerus -32.8882 8.26766 -89.1662
rradius 28.6301
rwrist 2.90737
rhand -21.9775 11.3959
rfingers 7.12502
rthumb 4.43045 -18.5378
lclavicle 5.01745e-014 1.85864e-014
lhumerus -42.6009 -12.5047 88.0399
lradius 34.7477
lwrist 11.4176
lhand -10.1106 26.4202
lfingers 7.12502
lthumb 15.8771 55.7893
rfemur -20.7126 -9.02363 22.8015
rtibia 26.9609
rfoot -14.3259 8.01732
rtoes 3.41071
lfemur -25.5455 13.3023 -18.1906
ltibia 67.842
lfoot -3.6029 -7.23838
ltoes -21.4078
